<svg width="58" height="58" viewBox="0 0 58 58" fill="none" xmlns="http://www.w3.org/2000/svg">
<path d="M14.5007 48.334C13.8159 48.334 13.2424 48.102 12.78 47.638C12.3176 47.174 12.0856 46.6004 12.084 45.9173C12.0824 45.2342 12.3144 44.6607 12.78 44.1967C13.2456 43.7327 13.8192 43.5007 14.5007 43.5007H43.5007C44.1854 43.5007 44.7597 43.7327 45.2237 44.1967C45.6877 44.6607 45.9189 45.2342 45.9173 45.9173C45.9157 46.6004 45.6837 47.1748 45.2213 47.6404C44.7589 48.106 44.1854 48.3372 43.5007 48.334H14.5007ZM16.1923 39.8757C15.0243 39.8757 13.9875 39.493 13.0821 38.7277C12.1766 37.9625 11.6224 36.9958 11.4194 35.8277L9.00274 20.4819C8.92218 20.4819 8.83196 20.4924 8.73207 20.5133C8.63218 20.5343 8.54116 20.5439 8.45899 20.5423C7.45205 20.5423 6.59655 20.1903 5.89249 19.4862C5.18843 18.7822 4.8356 17.9259 4.83399 16.9173C4.83238 15.9088 5.18521 15.0533 5.89249 14.3508C6.59977 13.6484 7.45527 13.2955 8.45899 13.2923C9.46271 13.2891 10.319 13.6419 11.0279 14.3508C11.7368 15.0597 12.0888 15.9152 12.084 16.9173C12.084 17.1993 12.0534 17.4611 11.9922 17.7027C11.9309 17.9444 11.8609 18.1659 11.7819 18.3673L19.334 21.7507L26.8861 11.4194C26.443 11.0972 26.0805 10.6743 25.7986 10.1507C25.5166 9.62704 25.3757 9.06316 25.3757 8.45899C25.3757 7.45205 25.7285 6.59574 26.4342 5.89007C27.1398 5.18441 27.9953 4.83238 29.0007 4.83399C30.006 4.8356 30.8623 5.18843 31.5696 5.89249C32.2768 6.59655 32.6289 7.45205 32.6257 8.45899C32.6257 9.06316 32.4847 9.62704 32.2027 10.1507C31.9208 10.6743 31.5583 11.0972 31.1152 11.4194L38.6673 21.7507L46.2194 18.3673C46.1389 18.1659 46.068 17.9444 46.0067 17.7027C45.9455 17.4611 45.9157 17.1993 45.9173 16.9173C45.9173 15.9104 46.2702 15.0541 46.9758 14.3484C47.6815 13.6427 48.537 13.2907 49.5423 13.2923C50.5477 13.2939 51.404 13.6468 52.1112 14.3508C52.8185 15.0549 53.1705 15.9104 53.1673 16.9173C53.1641 17.9243 52.8121 18.7806 52.1112 19.4862C51.4104 20.1919 50.5541 20.5439 49.5423 20.5423C49.4618 20.5423 49.3715 20.5327 49.2717 20.5133C49.1718 20.494 49.0807 20.4835 48.9986 20.4819L46.5819 35.8277C46.3805 36.9958 45.8271 37.9625 44.9217 38.7277C44.0162 39.493 42.9787 39.8757 41.809 39.8757H16.1923Z" fill="black"/>
</svg>
