<svg width="80" height="82" viewBox="0 0 80 82" fill="none" xmlns="http://www.w3.org/2000/svg">
<path d="M75.1735 0H12.1595C10.0046 0.616632 8.30426 2.29836 8.30426 4.81894V31.3761C8.30426 34.0849 10.3876 36.1811 12.9139 36.1831H15.7168C16.5853 36.1851 17.1966 35.4363 17.2294 34.6695C17.2662 33.8126 16.6337 33.0238 15.7168 33.0118L12.9293 32.9738C12.1188 32.9638 11.3876 32.2851 11.3876 31.3581V4.83295C11.3876 3.93603 12.086 3.20128 12.9758 3.20128H74.3592C75.247 3.20128 75.9454 3.93603 75.9454 4.83295V31.3561C75.9454 32.3672 75.1349 32.9918 74.2489 32.9898L64.3604 32.9858C63.7627 32.9858 63.2153 33.208 62.809 33.6305L57.8919 38.7277L52.878 33.5323C52.5104 33.208 52.0597 33.0238 51.5452 32.9878H39.6662C38.6623 30.3551 36.666 28.3911 34.072 27.5522L31.7237 26.7934C30.9422 26.6593 30.1414 26.9876 29.8512 27.8145L26.321 37.8828C25.3248 40.7217 23.4117 42.99 20.8699 44.4115L17.6241 46.2273C16.6956 45.1603 15.5852 44.5797 14.2873 44.5777L4.41037 44.5717C2.3019 44.5717 0.0116068 46.2954 0.00967245 48.7239L0 77.7977C0 80.054 1.84733 81.4675 3.66757 82H14.7883C16.0069 81.6677 17.1463 81.1591 17.9123 79.9179C20.2896 81.033 22.6786 81.6216 25.1372 82H48.3051C50.1176 81.6036 51.7077 80.5585 52.5143 78.9869C53.4931 77.083 53.4834 75.0449 52.4988 73.187C55.9691 71.9217 57.5089 67.9476 55.6673 64.5501C58.0892 63.5851 59.5438 61.2888 59.4239 58.7141C59.3117 56.2837 57.7545 54.1715 55.3946 53.3607C56.4276 51.3606 56.3444 49.1183 55.207 47.2664C54.1856 45.6027 52.3712 44.5737 50.3033 44.5717L38.0994 44.5636L39.91 38.8538C40.173 38.0209 40.2059 37.104 40.2814 36.1951H51.0751L56.7119 42.0351C57.3348 42.6817 58.331 42.8059 58.9867 42.1272L64.7105 36.2051L74.5603 36.1711C76.9029 36.163 78.4658 34.3472 79.0404 32.193V0H75.1793H75.1735ZM15.5562 77.3392C15.5562 78.1881 14.9527 78.7987 14.1654 78.7987H4.43552C3.6521 78.7987 3.0447 78.1881 3.0447 77.3392V49.1884C3.0447 48.4376 3.62695 47.791 4.30204 47.789L7.74522 47.7769L7.75683 67.4791C7.75683 68.4321 8.53251 69.0627 9.30046 69.0647C10.0645 69.0647 10.8441 68.4281 10.8441 67.4791L10.8518 47.801L14.1596 47.7689C14.9101 47.7609 15.5543 48.3455 15.5543 49.1864V77.3372L15.5562 77.3392ZM50.4407 47.7789C51.9089 47.7789 52.9882 48.9942 53.0211 50.3876C53.0559 51.8371 51.9456 53.1204 50.4465 53.1224L42.1209 53.1384C41.2021 53.1384 40.5754 53.8532 40.5599 54.7C40.5444 55.4628 41.1267 56.3257 42.0358 56.3257L53.704 56.3397C55.2186 56.3397 56.3386 57.5429 56.3347 59.0184C56.3308 60.4579 55.2147 61.6832 53.704 61.6832L42.1422 61.6912C41.235 61.6912 40.6063 62.3839 40.5638 63.1907C40.5212 63.9655 41.0725 64.8745 42.0532 64.8764L50.7714 64.8965C52.2338 64.9005 53.3306 66.0957 53.3558 67.5212C53.379 68.8886 52.317 70.2219 50.8624 70.2259L42.1229 70.25C41.206 70.252 40.5754 70.9627 40.5618 71.8296C40.5502 72.5824 41.1363 73.4232 42.032 73.4272L47.5314 73.4492C49.0228 73.4552 50.1621 74.6585 50.1447 76.144C50.1292 77.5614 49.0402 78.7947 47.5159 78.7927L26.0676 78.7647C23.402 78.7607 20.9957 77.7997 18.6435 76.7546V49.3245L22.5432 47.1063C25.5956 45.2944 27.9633 42.5476 29.18 39.086L32.244 30.3611C35.7878 30.9917 38.0181 34.6455 36.8536 38.2552L34.4473 45.7028C34.3022 46.1493 34.4434 46.7919 34.7065 47.1543C34.9289 47.4606 35.457 47.7649 35.9464 47.7649L50.4426 47.7709L50.4407 47.7789Z" fill="#868686"/>
<path d="M71.8929 15.3835C71.595 14.5706 70.8716 13.936 69.9044 13.7818L67.2369 13.3574L66.1053 10.991C65.6333 10.0039 64.817 9.40132 63.8208 9.40333C62.8594 9.40333 62.0199 9.93187 61.5653 10.8828L60.3795 13.3534L57.6076 13.8078C56.6501 13.964 55.946 14.6847 55.6964 15.4375C55.3599 16.4425 55.5862 17.4215 56.2845 18.1403L58.2382 20.1583L57.7972 22.9572C57.6366 23.9723 58.066 24.9232 58.7702 25.4478C59.571 26.0424 60.5362 26.1004 61.4338 25.6219L63.8363 24.3426L66.2175 25.636C67.1208 26.1265 68.1499 26.0264 68.9624 25.3537C69.5988 24.8251 69.9779 23.9042 69.8135 22.8871L69.3724 20.1623L71.3397 18.1243C72.0612 17.3775 72.2508 16.3444 71.8968 15.3794L71.8929 15.3835ZM66.9854 18.0842C66.3916 18.7069 66.1478 19.5577 66.2794 20.4246L66.5444 22.1784L64.9621 21.3556C64.3102 21.0172 63.4513 20.9552 62.8285 21.2755L61.0856 22.1684L61.3467 20.2524C61.4512 19.4817 61.1668 18.6628 60.6484 18.1183L59.3969 16.8009L61.2481 16.4586C61.9986 16.3204 62.6428 15.7779 62.989 15.0912L63.8053 13.4735L64.5733 15.0051C64.9118 15.6798 65.5095 16.2924 66.2658 16.4345L68.2099 16.8009L66.9854 18.0862V18.0842Z" fill="#FF0B01"/>
<path d="M32.6415 15.5021C32.3745 14.6572 31.6356 13.9405 30.6549 13.7863L27.9564 13.3639L26.6623 10.7312C26.2213 9.83428 25.3218 9.38582 24.4397 9.40384C23.548 9.42186 22.7259 9.93639 22.2907 10.8353L21.0662 13.3619L18.244 13.8184C17.2768 13.9745 16.5669 14.7834 16.3367 15.6262C16.0891 16.5412 16.3386 17.4821 17.0118 18.1728L18.9423 20.1529L18.507 22.8877C18.3465 23.8967 18.7005 24.8397 19.4084 25.3942C20.1319 25.9608 21.1204 26.149 21.9947 25.6865L24.5307 24.3432L26.9312 25.6445C27.8288 26.131 28.8598 26.0049 29.6181 25.3942C30.3106 24.8357 30.6762 23.9047 30.5156 22.9037L30.0746 20.1529L31.9896 18.1888C32.7014 17.4581 32.949 16.4751 32.6415 15.5021ZM27.7185 18.0507C27.084 18.7194 26.8519 19.5502 26.9912 20.4952L27.2368 22.1569L25.7454 21.3881C24.8827 20.9437 24.0239 20.9857 23.2288 21.4101L21.7993 22.1709L22.0585 20.1569C22.1495 19.4541 21.8477 18.6493 21.3892 18.1588L20.1164 16.8014L21.7684 16.5031C22.4996 16.371 23.2443 15.9506 23.6002 15.2578L24.5152 13.474L25.2986 15.0496C25.7377 15.9325 26.4689 16.371 27.4109 16.5372L28.912 16.8014L27.7204 18.0547L27.7185 18.0507Z" fill="#FF0B01"/>
<path d="M52.2908 15.5045C52.0181 14.6496 51.2869 13.9389 50.2907 13.7827L47.6019 13.3583L46.3078 10.7236C45.8668 9.82467 44.9596 9.38022 44.062 9.40424C43.178 9.42827 42.3675 9.9488 41.9323 10.8457L40.7078 13.3683L38.1254 13.7647C37.0983 13.9229 36.3284 14.5896 36.046 15.4424C35.7133 16.4455 35.9493 17.4305 36.6534 18.1592L38.5877 20.1593L38.1486 22.9241C37.9842 23.9592 38.402 24.9141 39.1216 25.4487C39.936 26.0533 40.9245 26.0953 41.8259 25.6068L44.1607 24.3375L46.6057 25.6509C47.5013 26.1314 48.5227 25.9892 49.2558 25.4006C49.9754 24.824 50.3236 23.8971 50.1611 22.8841L49.7239 20.1633L51.6293 18.1932C52.3392 17.4605 52.6003 16.4855 52.2889 15.5085L52.2908 15.5045ZM47.2885 18.1452C46.7044 18.7698 46.5129 19.6107 46.6367 20.4716L46.8804 22.1553L45.3252 21.3545C44.5089 20.9341 43.6423 20.9981 42.8414 21.4246L41.4448 22.1693L41.6924 20.3254C41.8007 19.5166 41.5493 18.6978 41.0115 18.1292L39.7503 16.7978L41.499 16.4835C42.3926 16.3233 43.0213 15.7527 43.4237 14.9399L44.151 13.4704L44.9808 15.1001C45.4122 15.9469 46.1376 16.3834 47.0448 16.5336L48.5672 16.7838L47.2885 18.1472V18.1452Z" fill="#FF0B01"/>
<path d="M21.8911 33.081C20.9742 33.3333 20.5776 34.2582 20.8426 35.1111C21.0709 35.8438 21.8814 36.3443 22.6609 36.1201C23.454 35.8919 23.9454 35.0991 23.7461 34.2081C23.5817 33.4654 22.808 32.8267 21.8911 33.079V33.081Z" fill="#868686"/>
<path d="M9.19718 71.6804C8.25321 71.7565 7.70578 72.5853 7.79089 73.4362C7.876 74.281 8.56851 74.9177 9.44865 74.8376C10.2379 74.7655 10.8723 74.0788 10.8162 73.1259C10.7718 72.3891 10.1353 71.6063 9.19911 71.6824L9.19718 71.6804Z" fill="#868686"/>
</svg>
