<svg width="36" height="36" viewBox="0 0 36 36" fill="none" xmlns="http://www.w3.org/2000/svg">
<path d="M5.45549 5.151L18.5655 18.0075L5.55299 30.9825C5.34011 30.7053 5.17485 30.3945 5.06399 30.063C5.00666 29.6877 5.00666 29.3058 5.06399 28.9305V6.8505C5.02499 6.258 5.16149 5.6655 5.45399 5.151M24.213 12.4005L19.9335 16.6395L6.97949 3.9C7.39949 3.7545 7.84949 3.714 8.28899 3.783C8.97899 3.972 9.63749 4.263 10.242 4.6425L21.966 11.13C22.728 11.5395 23.4705 11.97 24.213 12.4005ZM19.935 19.395L24.1935 23.577L21.1065 25.296L11.688 30.531C10.908 30.9615 10.125 31.3725 9.36299 31.842C9.03694 32.045 8.67132 32.1761 8.29056 32.2265C7.9098 32.277 7.52266 32.2456 7.15499 32.1345L19.935 19.395ZM30.975 18.0075C30.9859 18.532 30.8534 19.0495 30.5917 19.5042C30.33 19.9589 29.949 20.3335 29.49 20.5875L25.971 22.5405L21.3405 18.0075L25.9905 13.3965C27.183 14.061 28.356 14.7255 29.5275 15.351C29.9947 15.6121 30.3785 16.0002 30.6343 16.4703C30.8902 16.9404 31.0093 17.4734 30.975 18.0075Z" fill="white"/>
</svg>
